<svg width="32" height="32" viewBox="0 0 32 32" fill="none" xmlns="http://www.w3.org/2000/svg">
<path d="M26.1427 9.32659C26.0413 8.92925 25.7533 8.62925 25.424 8.53725C24.84 8.37325 22.0013 7.99992 16.0013 7.99992C10.0013 7.99992 7.16399 8.37325 6.57599 8.53725C6.25066 8.62792 5.96266 8.92792 5.85999 9.32659C5.71466 9.89192 5.33466 12.2599 5.33466 15.9999C5.33466 19.7386 5.71466 22.1066 5.85999 22.6746C5.96132 23.0706 6.24932 23.3706 6.57732 23.4613C7.16399 23.6266 9.99999 23.9999 16 23.9999C22 23.9999 24.8387 23.6266 25.4253 23.4626C25.7507 23.3719 26.0387 23.0719 26.1413 22.6733C26.288 22.1079 26.6667 19.7333 26.6667 15.9999C26.6667 12.2666 26.288 9.89325 26.1427 9.32659ZM28.7253 8.66392C29.3347 11.0399 29.3347 15.9999 29.3347 15.9999C29.3347 15.9999 29.3347 20.9599 28.7253 23.3359C28.3867 24.6493 27.396 25.6826 26.1413 26.0319C23.8627 26.6666 16 26.6666 16 26.6666C16 26.6666 8.14266 26.6666 5.85999 26.0319C4.59999 25.6773 3.61066 24.6453 3.27599 23.3359C2.66666 20.9599 2.66666 15.9999 2.66666 15.9999C2.66666 15.9999 2.66666 11.0399 3.27599 8.66392C3.61466 7.35059 4.60532 6.31725 5.85999 5.96792C8.14399 5.33325 16.0013 5.33325 16.0013 5.33325C16.0013 5.33325 23.8627 5.33325 26.1413 5.96792C27.4 6.32259 28.3907 7.35459 28.7253 8.66392ZM13.3347 20.6666V11.3333L21.3347 15.9999L13.3347 20.6666Z" fill="black"/>
</svg>
