<svg width="20" height="20" viewBox="0 0 20 20" fill="none" xmlns="http://www.w3.org/2000/svg">
<path d="M14.8416 4.07042C14.6264 4.07042 14.4161 4.13423 14.2372 4.25378C14.0582 4.37333 13.9188 4.54325 13.8364 4.74206C13.7541 4.94086 13.7325 5.15962 13.7745 5.37067C13.8165 5.58173 13.9201 5.77559 14.0723 5.92775C14.2244 6.07991 14.4183 6.18353 14.6294 6.22551C14.8404 6.26749 15.0592 6.24594 15.258 6.1636C15.4568 6.08125 15.6267 5.9418 15.7463 5.76288C15.8658 5.58396 15.9296 5.3736 15.9296 5.15842C15.9296 4.86986 15.815 4.59312 15.6109 4.38908C15.4069 4.18504 15.1302 4.07042 14.8416 4.07042ZM19.0123 6.26455C18.9946 5.51229 18.8538 4.76801 18.5952 4.06135C18.3647 3.45672 18.0059 2.90923 17.5435 2.45655C17.0945 1.99182 16.5457 1.63527 15.9387 1.41388C15.2339 1.14747 14.4888 1.00335 13.7355 0.98775C12.7744 0.93335 12.4661 0.93335 10 0.93335C7.53388 0.93335 7.22562 0.93335 6.26455 0.98775C5.51125 1.00335 4.76614 1.14747 4.06135 1.41388C3.4554 1.63751 2.9071 1.99375 2.45655 2.45655C1.99182 2.90551 1.63527 3.45428 1.41388 4.06135C1.14747 4.76614 1.00335 5.51125 0.98775 6.26455C0.93335 7.22562 0.93335 7.53388 0.93335 10C0.93335 12.4661 0.93335 12.7744 0.98775 13.7355C1.00335 14.4888 1.14747 15.2339 1.41388 15.9387C1.63527 16.5457 1.99182 17.0945 2.45655 17.5435C2.9071 18.0063 3.4554 18.3625 4.06135 18.5861C4.76614 18.8526 5.51125 18.9967 6.26455 19.0123C7.22562 19.0667 7.53388 19.0667 10 19.0667C12.4661 19.0667 12.7744 19.0667 13.7355 19.0123C14.4888 18.9967 15.2339 18.8526 15.9387 18.5861C16.5457 18.3648 17.0945 18.0082 17.5435 17.5435C18.0079 17.0925 18.367 16.5445 18.5952 15.9387C18.8538 15.232 18.9946 14.4877 19.0123 13.7355C19.0123 12.7744 19.0667 12.4661 19.0667 10C19.0667 7.53388 19.0667 7.22562 19.0123 6.26455ZM17.3803 13.6267C17.3737 14.2022 17.2694 14.7724 17.072 15.3131C16.9273 15.7077 16.6947 16.0642 16.392 16.3557C16.0979 16.6554 15.7421 16.8874 15.3493 17.0357C14.8087 17.2332 14.2385 17.3374 13.6629 17.344C12.7563 17.3893 12.4208 17.3984 10.0363 17.3984C7.65175 17.3984 7.31628 17.3984 6.40962 17.344C5.81202 17.3552 5.21698 17.2632 4.65068 17.072C4.27512 16.9161 3.93565 16.6847 3.65335 16.392C3.35242 16.1007 3.12281 15.7439 2.98242 15.3493C2.76106 14.801 2.63828 14.2178 2.61975 13.6267C2.61975 12.72 2.56535 12.3845 2.56535 10C2.56535 7.61548 2.56535 7.28002 2.61975 6.37335C2.62381 5.78497 2.73122 5.20189 2.93708 4.65068C3.0967 4.26799 3.3417 3.92685 3.65335 3.65335C3.92881 3.34161 4.26924 3.09402 4.65068 2.92802C5.20334 2.72859 5.78583 2.62436 6.37335 2.61975C7.28002 2.61975 7.61548 2.56535 10 2.56535C12.3845 2.56535 12.72 2.56535 13.6267 2.61975C14.2022 2.62635 14.7724 2.73059 15.3131 2.92802C15.7251 3.08093 16.0949 3.32953 16.392 3.65335C16.6891 3.93186 16.9213 4.27236 17.072 4.65068C17.2735 5.20278 17.3778 5.78563 17.3803 6.37335C17.4256 7.28002 17.4347 7.61548 17.4347 10C17.4347 12.3845 17.4256 12.72 17.3803 13.6267ZM10 5.34882C9.08048 5.35061 8.18212 5.62492 7.41842 6.13709C6.65473 6.64926 6.05999 7.3763 5.70934 8.22635C5.35869 9.0764 5.26787 10.0113 5.44836 10.913C5.62885 11.8146 6.07255 12.6425 6.72339 13.2921C7.37423 13.9417 8.20301 14.3838 9.10501 14.5625C10.007 14.7412 10.9417 14.6486 11.7911 14.2963C12.6405 13.944 13.3664 13.3478 13.877 12.5831C14.3877 11.8185 14.6603 10.9195 14.6603 10C14.6615 9.38811 14.5417 8.78201 14.3078 8.21656C14.0739 7.65112 13.7305 7.1375 13.2974 6.70524C12.8643 6.27297 12.35 5.9306 11.7842 5.69782C11.2183 5.46503 10.6119 5.34642 10 5.34882ZM10 13.0192C9.40287 13.0192 8.81914 12.8421 8.32264 12.5104C7.82613 12.1786 7.43916 11.7071 7.21064 11.1554C6.98212 10.6037 6.92233 9.99667 7.03883 9.411C7.15533 8.82533 7.44288 8.28736 7.86512 7.86512C8.28736 7.44288 8.82533 7.15533 9.411 7.03883C9.99667 6.92233 10.6037 6.98212 11.1554 7.21064C11.7071 7.43916 12.1786 7.82613 12.5104 8.32264C12.8421 8.81914 13.0192 9.40287 13.0192 10C13.0192 10.3965 12.9411 10.7891 12.7894 11.1554C12.6377 11.5217 12.4153 11.8546 12.1349 12.1349C11.8546 12.4153 11.5217 12.6377 11.1554 12.7894C10.7891 12.9411 10.3965 13.0192 10 13.0192Z" fill="black"/>
</svg>
