<svg width="42" height="42" viewBox="0 0 42 42" fill="none" xmlns="http://www.w3.org/2000/svg">
<rect width="42" height="42" fill="#F5F5F5"/>
<g id="Desktop - 10">
<rect width="1440" height="3816" transform="translate(-1089 -1125)" fill="#EDEDC4"/>
<g id="Group 283">
<g id="Group 282">
<g id="Group 281">
<g id="Group 280">
<rect id="Rectangle 103" x="-104" y="-52" width="250" height="250" rx="10" fill="white"/>
<g id="Group 273">
<g id="fluent:location-16-filled">
<path id="Vector" d="M24.0345 38.178C28.6099 34.1512 36.75 25.9245 36.75 18.375C36.75 14.1978 35.0906 10.1918 32.1369 7.23807C29.1832 4.28437 25.1772 2.625 21 2.625C16.8228 2.625 12.8168 4.28437 9.86307 7.23807C6.90937 10.1918 5.25 14.1978 5.25 18.375C5.25 25.9245 13.3875 34.1512 17.9655 38.178C18.8005 38.9233 19.8807 39.3353 21 39.3353C22.1193 39.3353 23.1995 38.9233 24.0345 38.178ZM15.75 18.375C15.75 16.9826 16.3031 15.6473 17.2877 14.6627C18.2723 13.6781 19.6076 13.125 21 13.125C22.3924 13.125 23.7277 13.6781 24.7123 14.6627C25.6969 15.6473 26.25 16.9826 26.25 18.375C26.25 19.7674 25.6969 21.1027 24.7123 22.0873C23.7277 23.0719 22.3924 23.625 21 23.625C19.6076 23.625 18.2723 23.0719 17.2877 22.0873C16.3031 21.1027 15.75 19.7674 15.75 18.375Z" fill="black"/>
</g>
</g>
</g>
</g>
</g>
</g>
</g>
</svg>
