<svg width="42" height="42" viewBox="0 0 42 42" fill="none" xmlns="http://www.w3.org/2000/svg">
<g id="material-symbols:call-sharp">
<path id="Vector" d="M34.9125 36.75C31.2667 36.75 27.6576 35.9625 24.0852 34.3875C20.5129 32.8125 17.2678 30.5667 14.35 27.65C11.4333 24.7333 9.1875 21.4958 7.6125 17.9375C6.0375 14.3792 5.25 10.7625 5.25 7.0875V5.25H15.575L17.1937 14.0437L12.2062 19.075C12.8479 20.2125 13.5625 21.2917 14.35 22.3125C15.1375 23.3333 15.9833 24.2812 16.8875 25.1562C17.7333 26.0021 18.6597 26.8117 19.6665 27.5852C20.6733 28.3587 21.7595 29.0803 22.925 29.75L28 24.675L36.75 26.4688V36.75H34.9125Z" fill="black"/>
</g>
</svg>
