<svg width="42" height="42" viewBox="0 0 42 42" fill="none" xmlns="http://www.w3.org/2000/svg">
<rect width="42" height="42" fill="#F5F5F5"/>
<g id="Desktop - 10">
<rect width="1440" height="3816" transform="translate(-829 -1125)" fill="#EDEDC4"/>
<g id="Group 283">
<g id="Group 282">
<g id="Group 281">
<g id="Group 279">
<rect id="Rectangle 102" x="-104" y="-52" width="250" height="250" rx="10" fill="white"/>
<g id="Group 274">
<g id="ph:line-segments-fill">
<path id="Vector" d="M39.1519 12.8987C38.6648 13.3874 38.0858 13.775 37.4484 14.0391C36.8109 14.3032 36.1275 14.4386 35.4375 14.4376C35.0152 14.4374 34.5944 14.3867 34.1841 14.2867L29.8151 22.4012C29.8643 22.4471 29.9135 22.4931 29.9611 22.5407C30.6553 23.235 31.1408 24.1101 31.3626 25.0666C31.5844 26.023 31.5336 27.0225 31.2158 27.9515C30.8981 28.8805 30.3262 29.7018 29.5651 30.3221C28.804 30.9424 27.8843 31.3369 26.9103 31.4607C25.9363 31.5844 24.9471 31.4326 24.055 31.0224C23.1629 30.6122 22.4038 29.9601 21.8638 29.1401C21.3238 28.3201 21.0245 27.3651 21 26.3836C20.9755 25.402 21.2267 24.4333 21.7252 23.5874L18.4144 20.2766C17.6067 20.7512 16.6868 21.001 15.75 21.0001C15.3272 21.0004 14.9059 20.9503 14.4949 20.8508L10.1259 28.9621C10.1752 29.008 10.226 29.0539 10.2736 29.1015C11.0077 29.8358 11.5076 30.7713 11.7101 31.7896C11.9125 32.808 11.8085 33.8635 11.4111 34.8228C11.0137 35.782 10.3408 36.6019 9.47747 37.1787C8.61414 37.7555 7.59916 38.0634 6.56085 38.0634C5.52255 38.0634 4.50757 37.7555 3.64424 37.1787C2.7809 36.6019 2.108 35.782 1.7106 34.8228C1.31321 33.8635 1.20917 32.808 1.41164 31.7896C1.61412 30.7713 2.11401 29.8358 2.84812 29.1015C3.48689 28.463 4.27957 28.0002 5.14953 27.7576C6.01949 27.515 6.93732 27.501 7.81429 27.7168L12.1833 19.6023C12.1341 19.5564 12.0848 19.5104 12.0373 19.4628C11.5496 18.9753 11.1628 18.3965 10.8989 17.7595C10.635 17.1224 10.4991 16.4397 10.4991 15.7501C10.4991 15.0606 10.635 14.3778 10.8989 13.7407C11.1628 13.1037 11.5496 12.5249 12.0373 12.0374C12.9405 11.1316 14.1433 10.5867 15.4199 10.5051C16.6964 10.4235 17.9588 10.8108 18.97 11.5942C19.9812 12.3775 20.6717 13.5032 20.9116 14.7596C21.1516 16.016 20.9245 17.3169 20.2732 18.4178L23.584 21.7285C24.7669 21.0354 26.1731 20.8295 27.5051 21.1543L31.8741 13.0398C31.8248 12.9939 31.774 12.9479 31.7264 12.9003C31.2388 12.4128 30.8519 11.834 30.588 11.197C30.3241 10.5599 30.1883 9.87715 30.1883 9.18761C30.1883 8.49807 30.3241 7.81528 30.588 7.17825C30.8519 6.54121 31.2388 5.9624 31.7264 5.47488C32.7111 4.4902 34.0466 3.93701 35.4391 3.93701C36.8317 3.93701 38.1672 4.4902 39.1519 5.47488C40.1365 6.45955 40.6897 7.79507 40.6897 9.18761C40.6897 10.5802 40.1365 11.9157 39.1519 12.9003V12.8987Z" fill="black"/>
</g>
</g>
</g>
</g>
</g>
</g>
</g>
</svg>
